<?xml version="1.0" encoding="UTF-8" standalone="no"?>
<!DOCTYPE svg PUBLIC "-//W3C//DTD SVG 1.1//EN"
 "http://www.w3.org/Graphics/SVG/1.1/DTD/svg11.dtd">
<!-- Generated by graphviz version 2.43.20190912.0211 (20190912.0211)
 -->
<!-- Title: %3 Pages: 1 -->
<svg width="273pt" height="44pt"
 viewBox="0.00 0.00 273.00 44.00" xmlns="http://www.w3.org/2000/svg" xmlns:xlink="http://www.w3.org/1999/xlink">
<g id="graph0" class="graph" transform="scale(1 1) rotate(0) translate(4 40)">
<title>%3</title>
<polygon fill="white" stroke="transparent" points="-4,4 -4,-40 269,-40 269,4 -4,4"/>
<!-- Mature -->
<g id="node1" class="node">
<title>Mature</title>
<polygon fill="#bcddaf" stroke="black" points="175,-36 119,-36 119,0 175,0 175,-36"/>
<text text-anchor="middle" x="147" y="-14.3" font-family="Times,serif" font-size="14.00">Mature</text>
</g>
<!-- Young -->
<g id="node2" class="node">
<title>Young</title>
<polygon fill="#eeeeee" stroke="black" points="265,-36 211,-36 211,0 265,0 265,-36"/>
<text text-anchor="middle" x="238" y="-14.3" font-family="Times,serif" font-size="14.00">Young</text>
</g>
<!-- Mature&#45;&gt;Young -->
<g id="edge2" class="edge">
<title>Mature&#45;&gt;Young</title>
<path fill="none" stroke="black" stroke-dasharray="5,2" d="M175.19,-18C183.25,-18 192.22,-18 200.77,-18"/>
<polygon fill="black" stroke="black" points="200.89,-21.5 210.89,-18 200.89,-14.5 200.89,-21.5"/>
</g>
<!-- Stack frame -->
<g id="node3" class="node">
<title>Stack frame</title>
<polygon fill="none" stroke="black" points="83,-36 0,-36 0,0 83,0 83,-36"/>
<text text-anchor="middle" x="41.5" y="-14.3" font-family="Times,serif" font-size="14.00">Stack frame</text>
</g>
<!-- Stack frame&#45;&gt;Mature -->
<g id="edge1" class="edge">
<title>Stack frame&#45;&gt;Mature</title>
<path fill="none" stroke="black" d="M83.11,-18C91.55,-18 100.41,-18 108.72,-18"/>
<polygon fill="black" stroke="black" points="108.89,-21.5 118.89,-18 108.89,-14.5 108.89,-21.5"/>
</g>
</g>
</svg>
