<?xml version="1.0" encoding="UTF-8" standalone="no"?>
<!DOCTYPE svg PUBLIC "-//W3C//DTD SVG 1.1//EN"
 "http://www.w3.org/Graphics/SVG/1.1/DTD/svg11.dtd">
<!-- Generated by graphviz version 3.0.0 (0)
 -->
<!-- Title: MIR Pages: 1 -->
<svg width="285pt" height="151pt"
 viewBox="0.00 0.00 284.50 151.00" xmlns="http://www.w3.org/2000/svg" xmlns:xlink="http://www.w3.org/1999/xlink">
<g id="graph0" class="graph" transform="scale(1 1) rotate(0) translate(4 147)">
<title>MIR</title>
<polygon fill="white" stroke="transparent" points="-4,4 -4,-147 280.5,-147 280.5,4 -4,4"/>
<!-- b0 -->
<g id="node1" class="node">
<title>b0</title>
<polygon fill="CornSilk" stroke="transparent" points="30.5,-119.5 30.5,-132.5 100.5,-132.5 100.5,-119.5 30.5,-119.5"/>
<polygon fill="none" stroke="black" points="30.5,-119.5 30.5,-132.5 100.5,-132.5 100.5,-119.5 30.5,-119.5"/>
<text text-anchor="start" x="61.5" y="-124.7" font-family="monospace" font-size="6.00">b0</text>
<polygon fill="#f2f2f2" stroke="transparent" points="30.5,-106.5 30.5,-119.5 78.5,-119.5 78.5,-106.5 30.5,-106.5"/>
<polygon fill="none" stroke="black" points="30.5,-106.5 30.5,-119.5 78.5,-119.5 78.5,-106.5 30.5,-106.5"/>
<text text-anchor="start" x="33.5" y="-111.7" font-family="monospace" font-size="6.00">Instruction</text>
<polygon fill="#f2f2f2" stroke="transparent" points="78.5,-106.5 78.5,-119.5 100.5,-119.5 100.5,-106.5 78.5,-106.5"/>
<polygon fill="none" stroke="black" points="78.5,-106.5 78.5,-119.5 100.5,-119.5 100.5,-106.5 78.5,-106.5"/>
<text text-anchor="start" x="81.5" y="-111.7" font-family="monospace" font-size="6.00">Line</text>
</g>
<!-- b1 -->
<g id="node2" class="node">
<title>b1</title>
<polygon fill="CornSilk" stroke="transparent" points="8.5,-43 8.5,-56 123.5,-56 123.5,-43 8.5,-43"/>
<polygon fill="none" stroke="black" points="8.5,-43 8.5,-56 123.5,-56 123.5,-43 8.5,-43"/>
<text text-anchor="start" x="62" y="-48.2" font-family="monospace" font-size="6.00">b1</text>
<polygon fill="#f2f2f2" stroke="transparent" points="8.5,-30 8.5,-43 101.5,-43 101.5,-30 8.5,-30"/>
<polygon fill="none" stroke="black" points="8.5,-30 8.5,-43 101.5,-43 101.5,-30 8.5,-30"/>
<text text-anchor="start" x="34" y="-35.2" font-family="monospace" font-size="6.00">Instruction</text>
<polygon fill="#f2f2f2" stroke="transparent" points="101.5,-30 101.5,-43 123.5,-43 123.5,-30 101.5,-30"/>
<polygon fill="none" stroke="black" points="101.5,-30 101.5,-43 123.5,-43 123.5,-30 101.5,-30"/>
<text text-anchor="start" x="104.5" y="-35.2" font-family="monospace" font-size="6.00">Line</text>
<polygon fill="none" stroke="black" points="8.5,-17 8.5,-30 101.5,-30 101.5,-17 8.5,-17"/>
<text text-anchor="start" x="11.5" y="-22.2" font-family="monospace" font-size="6.00">r2 = string &quot;loop body&quot;</text>
<polygon fill="none" stroke="black" points="101.5,-17 101.5,-30 123.5,-30 123.5,-17 101.5,-17"/>
<text text-anchor="start" x="110.5" y="-22.2" font-family="monospace" font-size="6.00">6</text>
<polygon fill="none" stroke="black" points="8.5,-4 8.5,-17 101.5,-17 101.5,-4 8.5,-4"/>
<text text-anchor="start" x="41.5" y="-9.2" font-family="monospace" font-size="6.00">goto b1</text>
<polygon fill="none" stroke="black" points="101.5,-4 101.5,-17 123.5,-17 123.5,-4 101.5,-4"/>
<text text-anchor="start" x="110.5" y="-9.2" font-family="monospace" font-size="6.00">5</text>
</g>
<!-- b0&#45;&gt;b1 -->
<g id="edge1" class="edge">
<title>b0&#45;&gt;b1</title>
<path fill="none" stroke="black" d="M65.5,-101.21C65.5,-92.38 65.5,-81.24 65.5,-70.46"/>
<polygon fill="black" stroke="black" points="69,-70.31 65.5,-60.31 62,-70.31 69,-70.31"/>
</g>
<!-- b1&#45;&gt;b1 -->
<g id="edge2" class="edge">
<title>b1&#45;&gt;b1</title>
<path fill="none" stroke="black" d="M131.31,-45.19C141.81,-42.97 149,-37.91 149,-30 149,-24.81 145.9,-20.85 140.81,-18.11"/>
<polygon fill="black" stroke="black" points="141.9,-14.78 131.31,-14.81 139.6,-21.39 141.9,-14.78"/>
</g>
<!-- b2 -->
<g id="node3" class="node">
<title>b2</title>
<polygon fill="LightGray" stroke="transparent" points="134.5,-125.5 134.5,-138.5 268.5,-138.5 268.5,-125.5 134.5,-125.5"/>
<polygon fill="none" stroke="black" points="134.5,-125.5 134.5,-138.5 268.5,-138.5 268.5,-125.5 134.5,-125.5"/>
<text text-anchor="start" x="171" y="-130.7" font-family="monospace" font-size="6.00">b2 (unreachable)</text>
<polygon fill="#f2f2f2" stroke="transparent" points="134.5,-112.5 134.5,-125.5 246.5,-125.5 246.5,-112.5 134.5,-112.5"/>
<polygon fill="none" stroke="black" points="134.5,-112.5 134.5,-125.5 246.5,-125.5 246.5,-112.5 134.5,-112.5"/>
<text text-anchor="start" x="169.5" y="-117.7" font-family="monospace" font-size="6.00">Instruction</text>
<polygon fill="#f2f2f2" stroke="transparent" points="246.5,-112.5 246.5,-125.5 268.5,-125.5 268.5,-112.5 246.5,-112.5"/>
<polygon fill="none" stroke="black" points="246.5,-112.5 246.5,-125.5 268.5,-125.5 268.5,-112.5 246.5,-112.5"/>
<text text-anchor="start" x="249.5" y="-117.7" font-family="monospace" font-size="6.00">Line</text>
<polygon fill="none" stroke="black" points="134.5,-99.5 134.5,-112.5 246.5,-112.5 246.5,-99.5 134.5,-99.5"/>
<text text-anchor="start" x="137.5" y="-104.7" font-family="monospace" font-size="6.00">r3 = string &quot;after the loop&quot;</text>
<polygon fill="none" stroke="black" points="246.5,-99.5 246.5,-112.5 268.5,-112.5 268.5,-99.5 246.5,-99.5"/>
<text text-anchor="start" x="255.5" y="-104.7" font-family="monospace" font-size="6.00">9</text>
</g>
</g>
</svg>
