<?xml version="1.0" encoding="UTF-8" standalone="no"?>
<!DOCTYPE svg PUBLIC "-//W3C//DTD SVG 1.1//EN"
 "http://www.w3.org/Graphics/SVG/1.1/DTD/svg11.dtd">
<!-- Generated by graphviz version 3.0.0 (0)
 -->
<!-- Title: MIR Pages: 1 -->
<svg width="101pt" height="107pt"
 viewBox="0.00 0.00 101.00 107.00" xmlns="http://www.w3.org/2000/svg" xmlns:xlink="http://www.w3.org/1999/xlink">
<g id="graph0" class="graph" transform="scale(1 1) rotate(0) translate(4 103)">
<title>MIR</title>
<polygon fill="white" stroke="transparent" points="-4,4 -4,-103 97,-103 97,4 -4,4"/>
<!-- b0 -->
<g id="node1" class="node">
<title>b0</title>
<polygon fill="CornSilk" stroke="transparent" points="8.5,-81.5 8.5,-94.5 85.5,-94.5 85.5,-81.5 8.5,-81.5"/>
<polygon fill="none" stroke="black" points="8.5,-81.5 8.5,-94.5 85.5,-94.5 85.5,-81.5 8.5,-81.5"/>
<text text-anchor="start" x="43" y="-86.7" font-family="monospace" font-size="6.00">b0</text>
<polygon fill="#f2f2f2" stroke="transparent" points="8.5,-68.5 8.5,-81.5 63.5,-81.5 63.5,-68.5 8.5,-68.5"/>
<polygon fill="none" stroke="black" points="8.5,-68.5 8.5,-81.5 63.5,-81.5 63.5,-68.5 8.5,-68.5"/>
<text text-anchor="start" x="15" y="-73.7" font-family="monospace" font-size="6.00">Instruction</text>
<polygon fill="#f2f2f2" stroke="transparent" points="63.5,-68.5 63.5,-81.5 85.5,-81.5 85.5,-68.5 63.5,-68.5"/>
<polygon fill="none" stroke="black" points="63.5,-68.5 63.5,-81.5 85.5,-81.5 85.5,-68.5 63.5,-68.5"/>
<text text-anchor="start" x="66.5" y="-73.7" font-family="monospace" font-size="6.00">Line</text>
<polygon fill="none" stroke="black" points="8.5,-55.5 8.5,-68.5 63.5,-68.5 63.5,-55.5 8.5,-55.5"/>
<text text-anchor="start" x="20.5" y="-60.7" font-family="monospace" font-size="6.00">r3 = nil</text>
<polygon fill="none" stroke="black" points="63.5,-55.5 63.5,-68.5 85.5,-68.5 85.5,-55.5 63.5,-55.5"/>
<text text-anchor="start" x="72.5" y="-60.7" font-family="monospace" font-size="6.00">4</text>
<polygon fill="none" stroke="black" points="8.5,-42.5 8.5,-55.5 63.5,-55.5 63.5,-42.5 8.5,-42.5"/>
<text text-anchor="start" x="11.5" y="-47.7" font-family="monospace" font-size="6.00">check_refs r1</text>
<polygon fill="none" stroke="black" points="63.5,-42.5 63.5,-55.5 85.5,-55.5 85.5,-42.5 63.5,-42.5"/>
<text text-anchor="start" x="72.5" y="-47.7" font-family="monospace" font-size="6.00">4</text>
<polygon fill="none" stroke="black" points="8.5,-29.5 8.5,-42.5 63.5,-42.5 63.5,-29.5 8.5,-29.5"/>
<text text-anchor="start" x="22.5" y="-34.7" font-family="monospace" font-size="6.00">drop r1</text>
<polygon fill="none" stroke="black" points="63.5,-29.5 63.5,-42.5 85.5,-42.5 85.5,-29.5 63.5,-29.5"/>
<text text-anchor="start" x="72.5" y="-34.7" font-family="monospace" font-size="6.00">4</text>
<polygon fill="none" stroke="black" points="8.5,-16.5 8.5,-29.5 63.5,-29.5 63.5,-16.5 8.5,-16.5"/>
<text text-anchor="start" x="22.5" y="-21.7" font-family="monospace" font-size="6.00">free r1</text>
<polygon fill="none" stroke="black" points="63.5,-16.5 63.5,-29.5 85.5,-29.5 85.5,-16.5 63.5,-16.5"/>
<text text-anchor="start" x="72.5" y="-21.7" font-family="monospace" font-size="6.00">4</text>
<polygon fill="none" stroke="black" points="8.5,-3.5 8.5,-16.5 63.5,-16.5 63.5,-3.5 8.5,-3.5"/>
<text text-anchor="start" x="19" y="-8.7" font-family="monospace" font-size="6.00">return r3</text>
<polygon fill="none" stroke="black" points="63.5,-3.5 63.5,-16.5 85.5,-16.5 85.5,-3.5 63.5,-3.5"/>
<text text-anchor="start" x="72.5" y="-8.7" font-family="monospace" font-size="6.00">4</text>
</g>
</g>
</svg>
