<?xml version="1.0" encoding="UTF-8" standalone="no"?>
<!DOCTYPE svg PUBLIC "-//W3C//DTD SVG 1.1//EN"
 "http://www.w3.org/Graphics/SVG/1.1/DTD/svg11.dtd">
<!-- Generated by graphviz version 3.0.0 (0)
 -->
<!-- Title: MIR Pages: 1 -->
<svg width="247pt" height="709pt"
 viewBox="0.00 0.00 246.50 709.00" xmlns="http://www.w3.org/2000/svg" xmlns:xlink="http://www.w3.org/1999/xlink">
<g id="graph0" class="graph" transform="scale(1 1) rotate(0) translate(4 705)">
<title>MIR</title>
<polygon fill="white" stroke="transparent" points="-4,4 -4,-705 242.5,-705 242.5,4 -4,4"/>
<!-- b0 -->
<g id="node1" class="node">
<title>b0</title>
<polygon fill="CornSilk" stroke="transparent" points="41.5,-684 41.5,-697 126.5,-697 126.5,-684 41.5,-684"/>
<polygon fill="none" stroke="black" points="41.5,-684 41.5,-697 126.5,-697 126.5,-684 41.5,-684"/>
<text text-anchor="start" x="80" y="-689.2" font-family="monospace" font-size="6.00">b0</text>
<polygon fill="#f2f2f2" stroke="transparent" points="41.5,-671 41.5,-684 104.5,-684 104.5,-671 41.5,-671"/>
<polygon fill="none" stroke="black" points="41.5,-671 41.5,-684 104.5,-684 104.5,-671 41.5,-671"/>
<text text-anchor="start" x="52" y="-676.2" font-family="monospace" font-size="6.00">Instruction</text>
<polygon fill="#f2f2f2" stroke="transparent" points="104.5,-671 104.5,-684 126.5,-684 126.5,-671 104.5,-671"/>
<polygon fill="none" stroke="black" points="104.5,-671 104.5,-684 126.5,-684 126.5,-671 104.5,-671"/>
<text text-anchor="start" x="107.5" y="-676.2" font-family="monospace" font-size="6.00">Line</text>
<polygon fill="none" stroke="black" points="41.5,-658 41.5,-671 104.5,-671 104.5,-658 41.5,-658"/>
<text text-anchor="start" x="52" y="-663.2" font-family="monospace" font-size="6.00">r1 = int 10</text>
<polygon fill="none" stroke="black" points="104.5,-658 104.5,-671 126.5,-671 126.5,-658 104.5,-658"/>
<text text-anchor="start" x="113.5" y="-663.2" font-family="monospace" font-size="6.00">5</text>
<polygon fill="none" stroke="black" points="41.5,-645 41.5,-658 104.5,-658 104.5,-645 41.5,-645"/>
<text text-anchor="start" x="44.5" y="-650.2" font-family="monospace" font-size="6.00">r2 = array [r1]</text>
<polygon fill="none" stroke="black" points="104.5,-645 104.5,-658 126.5,-658 126.5,-645 104.5,-645"/>
<text text-anchor="start" x="113.5" y="-650.2" font-family="monospace" font-size="6.00">5</text>
<polygon fill="none" stroke="black" points="41.5,-632 41.5,-645 104.5,-645 104.5,-632 41.5,-632"/>
<text text-anchor="start" x="56" y="-637.2" font-family="monospace" font-size="6.00">r4 = true</text>
<polygon fill="none" stroke="black" points="104.5,-632 104.5,-645 126.5,-645 126.5,-632 104.5,-632"/>
<text text-anchor="start" x="113.5" y="-637.2" font-family="monospace" font-size="6.00">5</text>
<polygon fill="none" stroke="black" points="41.5,-619 41.5,-632 104.5,-632 104.5,-619 41.5,-619"/>
<text text-anchor="start" x="50" y="-624.2" font-family="monospace" font-size="6.00">r3 = move r2</text>
<polygon fill="none" stroke="black" points="104.5,-619 104.5,-632 126.5,-632 126.5,-619 104.5,-619"/>
<text text-anchor="start" x="113.5" y="-624.2" font-family="monospace" font-size="6.00">5</text>
</g>
<!-- b2 -->
<g id="node3" class="node">
<title>b2</title>
<polygon fill="CornSilk" stroke="transparent" points="48.5,-561.5 48.5,-574.5 118.5,-574.5 118.5,-561.5 48.5,-561.5"/>
<polygon fill="none" stroke="black" points="48.5,-561.5 48.5,-574.5 118.5,-574.5 118.5,-561.5 48.5,-561.5"/>
<text text-anchor="start" x="79.5" y="-566.7" font-family="monospace" font-size="6.00">b2</text>
<polygon fill="#f2f2f2" stroke="transparent" points="48.5,-548.5 48.5,-561.5 96.5,-561.5 96.5,-548.5 48.5,-548.5"/>
<polygon fill="none" stroke="black" points="48.5,-548.5 48.5,-561.5 96.5,-561.5 96.5,-548.5 48.5,-548.5"/>
<text text-anchor="start" x="51.5" y="-553.7" font-family="monospace" font-size="6.00">Instruction</text>
<polygon fill="#f2f2f2" stroke="transparent" points="96.5,-548.5 96.5,-561.5 118.5,-561.5 118.5,-548.5 96.5,-548.5"/>
<polygon fill="none" stroke="black" points="96.5,-548.5 96.5,-561.5 118.5,-561.5 118.5,-548.5 96.5,-548.5"/>
<text text-anchor="start" x="99.5" y="-553.7" font-family="monospace" font-size="6.00">Line</text>
<polygon fill="none" stroke="black" points="48.5,-535.5 48.5,-548.5 96.5,-548.5 96.5,-535.5 48.5,-535.5"/>
<text text-anchor="start" x="57" y="-540.7" font-family="monospace" font-size="6.00">r5 = nil</text>
<polygon fill="none" stroke="black" points="96.5,-535.5 96.5,-548.5 118.5,-548.5 118.5,-535.5 96.5,-535.5"/>
<text text-anchor="start" x="105.5" y="-540.7" font-family="monospace" font-size="6.00">5</text>
</g>
<!-- b0&#45;&gt;b2 -->
<g id="edge1" class="edge">
<title>b0&#45;&gt;b2</title>
<path fill="none" stroke="black" d="M83.5,-614.96C83.5,-606.43 83.5,-597.58 83.5,-589.43"/>
<polygon fill="black" stroke="black" points="87,-589.19 83.5,-579.19 80,-589.19 87,-589.19"/>
</g>
<!-- b1 -->
<g id="node2" class="node">
<title>b1</title>
<polygon fill="LightGray" stroke="transparent" points="160.5,-658 160.5,-671 230.5,-671 230.5,-658 160.5,-658"/>
<polygon fill="none" stroke="black" points="160.5,-658 160.5,-671 230.5,-671 230.5,-658 160.5,-658"/>
<text text-anchor="start" x="165" y="-663.2" font-family="monospace" font-size="6.00">b1 (unreachable)</text>
<polygon fill="#f2f2f2" stroke="transparent" points="160.5,-645 160.5,-658 208.5,-658 208.5,-645 160.5,-645"/>
<polygon fill="none" stroke="black" points="160.5,-645 160.5,-658 208.5,-658 208.5,-645 160.5,-645"/>
<text text-anchor="start" x="163.5" y="-650.2" font-family="monospace" font-size="6.00">Instruction</text>
<polygon fill="#f2f2f2" stroke="transparent" points="208.5,-645 208.5,-658 230.5,-658 230.5,-645 208.5,-645"/>
<polygon fill="none" stroke="black" points="208.5,-645 208.5,-658 230.5,-658 230.5,-645 208.5,-645"/>
<text text-anchor="start" x="211.5" y="-650.2" font-family="monospace" font-size="6.00">Line</text>
</g>
<!-- b4 -->
<g id="node5" class="node">
<title>b4</title>
<polygon fill="CornSilk" stroke="transparent" points="9.5,-479 9.5,-492 158.5,-492 158.5,-479 9.5,-479"/>
<polygon fill="none" stroke="black" points="9.5,-479 9.5,-492 158.5,-492 158.5,-479 9.5,-479"/>
<text text-anchor="start" x="80" y="-484.2" font-family="monospace" font-size="6.00">b4</text>
<polygon fill="#f2f2f2" stroke="transparent" points="9.5,-466 9.5,-479 136.5,-479 136.5,-466 9.5,-466"/>
<polygon fill="none" stroke="black" points="9.5,-466 9.5,-479 136.5,-479 136.5,-466 9.5,-466"/>
<text text-anchor="start" x="52" y="-471.2" font-family="monospace" font-size="6.00">Instruction</text>
<polygon fill="#f2f2f2" stroke="transparent" points="136.5,-466 136.5,-479 158.5,-479 158.5,-466 136.5,-466"/>
<polygon fill="none" stroke="black" points="136.5,-466 136.5,-479 158.5,-479 158.5,-466 136.5,-466"/>
<text text-anchor="start" x="139.5" y="-471.2" font-family="monospace" font-size="6.00">Line</text>
<polygon fill="none" stroke="black" points="9.5,-453 9.5,-466 136.5,-466 136.5,-453 9.5,-453"/>
<text text-anchor="start" x="56" y="-458.2" font-family="monospace" font-size="6.00">r7 = true</text>
<polygon fill="none" stroke="black" points="136.5,-453 136.5,-466 158.5,-466 158.5,-453 136.5,-453"/>
<text text-anchor="start" x="145.5" y="-458.2" font-family="monospace" font-size="6.00">7</text>
<polygon fill="none" stroke="black" points="9.5,-440 9.5,-453 136.5,-453 136.5,-440 9.5,-440"/>
<text text-anchor="start" x="12.5" y="-445.2" font-family="monospace" font-size="6.00">branch r7, true = b5, false = b3</text>
<polygon fill="none" stroke="black" points="136.5,-440 136.5,-453 158.5,-453 158.5,-440 136.5,-440"/>
<text text-anchor="start" x="145.5" y="-445.2" font-family="monospace" font-size="6.00">7</text>
</g>
<!-- b2&#45;&gt;b4 -->
<g id="edge2" class="edge">
<title>b2&#45;&gt;b4</title>
<path fill="none" stroke="black" d="M83.5,-531.97C83.5,-524.11 83.5,-515.04 83.5,-506.22"/>
<polygon fill="black" stroke="black" points="87,-506.07 83.5,-496.07 80,-506.07 87,-506.07"/>
</g>
<!-- b3 -->
<g id="node4" class="node">
<title>b3</title>
<polygon fill="CornSilk" stroke="transparent" points="9.5,-247.5 9.5,-260.5 158.5,-260.5 158.5,-247.5 9.5,-247.5"/>
<polygon fill="none" stroke="black" points="9.5,-247.5 9.5,-260.5 158.5,-260.5 158.5,-247.5 9.5,-247.5"/>
<text text-anchor="start" x="80" y="-252.7" font-family="monospace" font-size="6.00">b3</text>
<polygon fill="#f2f2f2" stroke="transparent" points="9.5,-234.5 9.5,-247.5 136.5,-247.5 136.5,-234.5 9.5,-234.5"/>
<polygon fill="none" stroke="black" points="9.5,-234.5 9.5,-247.5 136.5,-247.5 136.5,-234.5 9.5,-234.5"/>
<text text-anchor="start" x="52" y="-239.7" font-family="monospace" font-size="6.00">Instruction</text>
<polygon fill="#f2f2f2" stroke="transparent" points="136.5,-234.5 136.5,-247.5 158.5,-247.5 158.5,-234.5 136.5,-234.5"/>
<polygon fill="none" stroke="black" points="136.5,-234.5 136.5,-247.5 158.5,-247.5 158.5,-234.5 136.5,-234.5"/>
<text text-anchor="start" x="139.5" y="-239.7" font-family="monospace" font-size="6.00">Line</text>
<polygon fill="none" stroke="black" points="9.5,-221.5 9.5,-234.5 136.5,-234.5 136.5,-221.5 9.5,-221.5"/>
<text text-anchor="start" x="57.5" y="-226.7" font-family="monospace" font-size="6.00">r6 = nil</text>
<polygon fill="none" stroke="black" points="136.5,-221.5 136.5,-234.5 158.5,-234.5 158.5,-221.5 136.5,-221.5"/>
<text text-anchor="start" x="145.5" y="-226.7" font-family="monospace" font-size="6.00">7</text>
<polygon fill="none" stroke="black" points="9.5,-208.5 9.5,-221.5 136.5,-221.5 136.5,-208.5 9.5,-208.5"/>
<text text-anchor="start" x="56" y="-213.7" font-family="monospace" font-size="6.00">r10 = nil</text>
<polygon fill="none" stroke="black" points="136.5,-208.5 136.5,-221.5 158.5,-221.5 158.5,-208.5 136.5,-208.5"/>
<text text-anchor="start" x="145.5" y="-213.7" font-family="monospace" font-size="6.00">7</text>
<polygon fill="none" stroke="black" points="9.5,-195.5 9.5,-208.5 136.5,-208.5 136.5,-195.5 9.5,-195.5"/>
<text text-anchor="start" x="12.5" y="-200.7" font-family="monospace" font-size="6.00">branch r4, true = b6, false = b7</text>
<polygon fill="none" stroke="black" points="136.5,-195.5 136.5,-208.5 158.5,-208.5 158.5,-195.5 136.5,-195.5"/>
<text text-anchor="start" x="145.5" y="-200.7" font-family="monospace" font-size="6.00">8</text>
</g>
<!-- b6 -->
<g id="node7" class="node">
<title>b6</title>
<polygon fill="CornSilk" stroke="transparent" points="8.5,-138.5 8.5,-151.5 85.5,-151.5 85.5,-138.5 8.5,-138.5"/>
<polygon fill="none" stroke="black" points="8.5,-138.5 8.5,-151.5 85.5,-151.5 85.5,-138.5 8.5,-138.5"/>
<text text-anchor="start" x="43" y="-143.7" font-family="monospace" font-size="6.00">b6</text>
<polygon fill="#f2f2f2" stroke="transparent" points="8.5,-125.5 8.5,-138.5 63.5,-138.5 63.5,-125.5 8.5,-125.5"/>
<polygon fill="none" stroke="black" points="8.5,-125.5 8.5,-138.5 63.5,-138.5 63.5,-125.5 8.5,-125.5"/>
<text text-anchor="start" x="15" y="-130.7" font-family="monospace" font-size="6.00">Instruction</text>
<polygon fill="#f2f2f2" stroke="transparent" points="63.5,-125.5 63.5,-138.5 85.5,-138.5 85.5,-125.5 63.5,-125.5"/>
<polygon fill="none" stroke="black" points="63.5,-125.5 63.5,-138.5 85.5,-138.5 85.5,-125.5 63.5,-125.5"/>
<text text-anchor="start" x="66.5" y="-130.7" font-family="monospace" font-size="6.00">Line</text>
<polygon fill="none" stroke="black" points="8.5,-112.5 8.5,-125.5 63.5,-125.5 63.5,-112.5 8.5,-112.5"/>
<text text-anchor="start" x="11.5" y="-117.7" font-family="monospace" font-size="6.00">check_refs r3</text>
<polygon fill="none" stroke="black" points="63.5,-112.5 63.5,-125.5 85.5,-125.5 85.5,-112.5 63.5,-112.5"/>
<text text-anchor="start" x="72.5" y="-117.7" font-family="monospace" font-size="6.00">8</text>
<polygon fill="none" stroke="black" points="8.5,-99.5 8.5,-112.5 63.5,-112.5 63.5,-99.5 8.5,-99.5"/>
<text text-anchor="start" x="22.5" y="-104.7" font-family="monospace" font-size="6.00">drop r3</text>
<polygon fill="none" stroke="black" points="63.5,-99.5 63.5,-112.5 85.5,-112.5 85.5,-99.5 63.5,-99.5"/>
<text text-anchor="start" x="72.5" y="-104.7" font-family="monospace" font-size="6.00">8</text>
<polygon fill="none" stroke="black" points="8.5,-86.5 8.5,-99.5 63.5,-99.5 63.5,-86.5 8.5,-86.5"/>
<text text-anchor="start" x="22.5" y="-91.7" font-family="monospace" font-size="6.00">free r3</text>
<polygon fill="none" stroke="black" points="63.5,-86.5 63.5,-99.5 85.5,-99.5 85.5,-86.5 63.5,-86.5"/>
<text text-anchor="start" x="72.5" y="-91.7" font-family="monospace" font-size="6.00">8</text>
</g>
<!-- b3&#45;&gt;b6 -->
<g id="edge3" class="edge">
<title>b3&#45;&gt;b6</title>
<path fill="none" stroke="black" d="M71.18,-191.87C68.31,-183.57 65.21,-174.61 62.22,-165.95"/>
<polygon fill="black" stroke="black" points="65.47,-164.65 58.89,-156.34 58.85,-166.93 65.47,-164.65"/>
</g>
<!-- b7 -->
<g id="node8" class="node">
<title>b7</title>
<polygon fill="CornSilk" stroke="transparent" points="48.5,-29.5 48.5,-42.5 118.5,-42.5 118.5,-29.5 48.5,-29.5"/>
<polygon fill="none" stroke="black" points="48.5,-29.5 48.5,-42.5 118.5,-42.5 118.5,-29.5 48.5,-29.5"/>
<text text-anchor="start" x="79.5" y="-34.7" font-family="monospace" font-size="6.00">b7</text>
<polygon fill="#f2f2f2" stroke="transparent" points="48.5,-16.5 48.5,-29.5 96.5,-29.5 96.5,-16.5 48.5,-16.5"/>
<polygon fill="none" stroke="black" points="48.5,-16.5 48.5,-29.5 96.5,-29.5 96.5,-16.5 48.5,-16.5"/>
<text text-anchor="start" x="51.5" y="-21.7" font-family="monospace" font-size="6.00">Instruction</text>
<polygon fill="#f2f2f2" stroke="transparent" points="96.5,-16.5 96.5,-29.5 118.5,-29.5 118.5,-16.5 96.5,-16.5"/>
<polygon fill="none" stroke="black" points="96.5,-16.5 96.5,-29.5 118.5,-29.5 118.5,-16.5 96.5,-16.5"/>
<text text-anchor="start" x="99.5" y="-21.7" font-family="monospace" font-size="6.00">Line</text>
<polygon fill="none" stroke="black" points="48.5,-3.5 48.5,-16.5 96.5,-16.5 96.5,-3.5 48.5,-3.5"/>
<text text-anchor="start" x="53.5" y="-8.7" font-family="monospace" font-size="6.00">return r10</text>
<polygon fill="none" stroke="black" points="96.5,-3.5 96.5,-16.5 118.5,-16.5 118.5,-3.5 96.5,-3.5"/>
<text text-anchor="start" x="105.5" y="-8.7" font-family="monospace" font-size="6.00">7</text>
</g>
<!-- b3&#45;&gt;b7 -->
<g id="edge4" class="edge">
<title>b3&#45;&gt;b7</title>
<path fill="none" stroke="black" d="M94.32,-191.82C97.26,-180.48 100.04,-167.81 101.5,-156 105.49,-123.8 106.32,-115.08 101.5,-83 100.21,-74.41 97.91,-65.34 95.37,-56.97"/>
<polygon fill="black" stroke="black" points="98.62,-55.63 92.21,-47.19 91.95,-57.78 98.62,-55.63"/>
</g>
<!-- b4&#45;&gt;b3 -->
<g id="edge6" class="edge">
<title>b4&#45;&gt;b3</title>
<path fill="none" stroke="black" d="M69.14,-435.95C64.45,-424.97 59.84,-412.17 57.5,-400 49.18,-356.79 49.87,-344.33 57.5,-301 59.03,-292.3 61.54,-283.28 64.4,-274.68"/>
<polygon fill="black" stroke="black" points="67.72,-275.79 67.76,-265.2 61.12,-273.46 67.72,-275.79"/>
</g>
<!-- b5 -->
<g id="node6" class="node">
<title>b5</title>
<polygon fill="CornSilk" stroke="transparent" points="75.5,-382.5 75.5,-395.5 182.5,-395.5 182.5,-382.5 75.5,-382.5"/>
<polygon fill="none" stroke="black" points="75.5,-382.5 75.5,-395.5 182.5,-395.5 182.5,-382.5 75.5,-382.5"/>
<text text-anchor="start" x="125" y="-387.7" font-family="monospace" font-size="6.00">b5</text>
<polygon fill="#f2f2f2" stroke="transparent" points="75.5,-369.5 75.5,-382.5 160.5,-382.5 160.5,-369.5 75.5,-369.5"/>
<polygon fill="none" stroke="black" points="75.5,-369.5 75.5,-382.5 160.5,-382.5 160.5,-369.5 75.5,-369.5"/>
<text text-anchor="start" x="97" y="-374.7" font-family="monospace" font-size="6.00">Instruction</text>
<polygon fill="#f2f2f2" stroke="transparent" points="160.5,-369.5 160.5,-382.5 182.5,-382.5 182.5,-369.5 160.5,-369.5"/>
<polygon fill="none" stroke="black" points="160.5,-369.5 160.5,-382.5 182.5,-382.5 182.5,-369.5 160.5,-369.5"/>
<text text-anchor="start" x="163.5" y="-374.7" font-family="monospace" font-size="6.00">Line</text>
<polygon fill="none" stroke="black" points="75.5,-356.5 75.5,-369.5 160.5,-369.5 160.5,-356.5 75.5,-356.5"/>
<text text-anchor="start" x="78.5" y="-361.7" font-family="monospace" font-size="6.00">r8 = module std::drop</text>
<polygon fill="none" stroke="black" points="160.5,-356.5 160.5,-369.5 182.5,-369.5 182.5,-356.5 160.5,-356.5"/>
<text text-anchor="start" x="169.5" y="-361.7" font-family="monospace" font-size="6.00">8</text>
<polygon fill="none" stroke="black" points="75.5,-343.5 75.5,-356.5 160.5,-356.5 160.5,-343.5 75.5,-343.5"/>
<text text-anchor="start" x="99" y="-348.7" font-family="monospace" font-size="6.00">r4 = false</text>
<polygon fill="none" stroke="black" points="160.5,-343.5 160.5,-356.5 182.5,-356.5 182.5,-343.5 160.5,-343.5"/>
<text text-anchor="start" x="169.5" y="-348.7" font-family="monospace" font-size="6.00">8</text>
<polygon fill="none" stroke="black" points="75.5,-330.5 75.5,-343.5 160.5,-343.5 160.5,-330.5 75.5,-330.5"/>
<text text-anchor="start" x="87.5" y="-335.7" font-family="monospace" font-size="6.00">call r8.drop(r3)</text>
<polygon fill="none" stroke="black" points="160.5,-330.5 160.5,-343.5 182.5,-343.5 182.5,-330.5 160.5,-330.5"/>
<text text-anchor="start" x="169.5" y="-335.7" font-family="monospace" font-size="6.00">8</text>
<polygon fill="none" stroke="black" points="75.5,-317.5 75.5,-330.5 160.5,-330.5 160.5,-317.5 75.5,-317.5"/>
<text text-anchor="start" x="87.5" y="-322.7" font-family="monospace" font-size="6.00">r9 = move_result</text>
<polygon fill="none" stroke="black" points="160.5,-317.5 160.5,-330.5 182.5,-330.5 182.5,-317.5 160.5,-317.5"/>
<text text-anchor="start" x="169.5" y="-322.7" font-family="monospace" font-size="6.00">8</text>
<polygon fill="none" stroke="black" points="75.5,-304.5 75.5,-317.5 160.5,-317.5 160.5,-304.5 75.5,-304.5"/>
<text text-anchor="start" x="104.5" y="-309.7" font-family="monospace" font-size="6.00">goto b3</text>
<polygon fill="none" stroke="black" points="160.5,-304.5 160.5,-317.5 182.5,-317.5 182.5,-304.5 160.5,-304.5"/>
<text text-anchor="start" x="169.5" y="-309.7" font-family="monospace" font-size="6.00">7</text>
</g>
<!-- b4&#45;&gt;b5 -->
<g id="edge5" class="edge">
<title>b4&#45;&gt;b5</title>
<path fill="none" stroke="black" d="M95.09,-435.77C98.3,-427.68 101.9,-418.6 105.51,-409.48"/>
<polygon fill="black" stroke="black" points="108.84,-410.59 109.27,-400 102.33,-408.01 108.84,-410.59"/>
</g>
<!-- b5&#45;&gt;b3 -->
<g id="edge7" class="edge">
<title>b5&#45;&gt;b3</title>
<path fill="none" stroke="black" d="M110.2,-300.69C106.94,-292.02 103.57,-283.02 100.36,-274.46"/>
<polygon fill="black" stroke="black" points="103.61,-273.15 96.82,-265.02 97.05,-275.61 103.61,-273.15"/>
</g>
<!-- b6&#45;&gt;b7 -->
<g id="edge8" class="edge">
<title>b6&#45;&gt;b7</title>
<path fill="none" stroke="black" d="M60.49,-82.96C63.9,-74.29 67.53,-65.07 70.88,-56.57"/>
<polygon fill="black" stroke="black" points="74.23,-57.59 74.64,-47.01 67.72,-55.03 74.23,-57.59"/>
</g>
</g>
</svg>
