<?xml version="1.0" encoding="UTF-8" standalone="no"?>
<!DOCTYPE svg PUBLIC "-//W3C//DTD SVG 1.1//EN"
 "http://www.w3.org/Graphics/SVG/1.1/DTD/svg11.dtd">
<!-- Generated by graphviz version 3.0.0 (0)
 -->
<!-- Title: MIR Pages: 1 -->
<svg width="242pt" height="332pt"
 viewBox="0.00 0.00 242.00 332.00" xmlns="http://www.w3.org/2000/svg" xmlns:xlink="http://www.w3.org/1999/xlink">
<g id="graph0" class="graph" transform="scale(1 1) rotate(0) translate(4 328)">
<title>MIR</title>
<polygon fill="white" stroke="transparent" points="-4,4 -4,-328 238,-328 238,4 -4,4"/>
<!-- b0 -->
<g id="node1" class="node">
<title>b0</title>
<polygon fill="CornSilk" stroke="transparent" points="82,-306 82,-319 152,-319 152,-306 82,-306"/>
<polygon fill="none" stroke="black" points="82,-306 82,-319 152,-319 152,-306 82,-306"/>
<text text-anchor="start" x="113" y="-311.2" font-family="monospace" font-size="6.00">b0</text>
<polygon fill="#f2f2f2" stroke="transparent" points="82,-293 82,-306 130,-306 130,-293 82,-293"/>
<polygon fill="none" stroke="black" points="82,-293 82,-306 130,-306 130,-293 82,-293"/>
<text text-anchor="start" x="85" y="-298.2" font-family="monospace" font-size="6.00">Instruction</text>
<polygon fill="#f2f2f2" stroke="transparent" points="130,-293 130,-306 152,-306 152,-293 130,-293"/>
<polygon fill="none" stroke="black" points="130,-293 130,-306 152,-306 152,-293 130,-293"/>
<text text-anchor="start" x="133" y="-298.2" font-family="monospace" font-size="6.00">Line</text>
</g>
<!-- b2 -->
<g id="node3" class="node">
<title>b2</title>
<polygon fill="CornSilk" stroke="transparent" points="43,-235 43,-248 192,-248 192,-235 43,-235"/>
<polygon fill="none" stroke="black" points="43,-235 43,-248 192,-248 192,-235 43,-235"/>
<text text-anchor="start" x="113.5" y="-240.2" font-family="monospace" font-size="6.00">b2</text>
<polygon fill="#f2f2f2" stroke="transparent" points="43,-222 43,-235 170,-235 170,-222 43,-222"/>
<polygon fill="none" stroke="black" points="43,-222 43,-235 170,-235 170,-222 43,-222"/>
<text text-anchor="start" x="85.5" y="-227.2" font-family="monospace" font-size="6.00">Instruction</text>
<polygon fill="#f2f2f2" stroke="transparent" points="170,-222 170,-235 192,-235 192,-222 170,-222"/>
<polygon fill="none" stroke="black" points="170,-222 170,-235 192,-235 192,-222 170,-222"/>
<text text-anchor="start" x="173" y="-227.2" font-family="monospace" font-size="6.00">Line</text>
<polygon fill="none" stroke="black" points="43,-209 43,-222 170,-222 170,-209 43,-209"/>
<text text-anchor="start" x="89.5" y="-214.2" font-family="monospace" font-size="6.00">r2 = true</text>
<polygon fill="none" stroke="black" points="170,-209 170,-222 192,-222 192,-209 170,-209"/>
<text text-anchor="start" x="179" y="-214.2" font-family="monospace" font-size="6.00">5</text>
<polygon fill="none" stroke="black" points="43,-196 43,-209 170,-209 170,-196 43,-196"/>
<text text-anchor="start" x="46" y="-201.2" font-family="monospace" font-size="6.00">branch r2, true = b4, false = b3</text>
<polygon fill="none" stroke="black" points="170,-196 170,-209 192,-209 192,-196 170,-196"/>
<text text-anchor="start" x="179" y="-201.2" font-family="monospace" font-size="6.00">5</text>
</g>
<!-- b0&#45;&gt;b2 -->
<g id="edge1" class="edge">
<title>b0&#45;&gt;b2</title>
<path fill="none" stroke="black" d="M117,-287.61C117,-280.24 117,-271.33 117,-262.52"/>
<polygon fill="black" stroke="black" points="120.5,-262.31 117,-252.31 113.5,-262.31 120.5,-262.31"/>
</g>
<!-- b1 -->
<g id="node2" class="node">
<title>b1</title>
<polygon fill="CornSilk" stroke="transparent" points="82,-29.5 82,-42.5 152,-42.5 152,-29.5 82,-29.5"/>
<polygon fill="none" stroke="black" points="82,-29.5 82,-42.5 152,-42.5 152,-29.5 82,-29.5"/>
<text text-anchor="start" x="113" y="-34.7" font-family="monospace" font-size="6.00">b1</text>
<polygon fill="#f2f2f2" stroke="transparent" points="82,-16.5 82,-29.5 130,-29.5 130,-16.5 82,-16.5"/>
<polygon fill="none" stroke="black" points="82,-16.5 82,-29.5 130,-29.5 130,-16.5 82,-16.5"/>
<text text-anchor="start" x="85" y="-21.7" font-family="monospace" font-size="6.00">Instruction</text>
<polygon fill="#f2f2f2" stroke="transparent" points="130,-16.5 130,-29.5 152,-29.5 152,-16.5 130,-16.5"/>
<polygon fill="none" stroke="black" points="130,-16.5 130,-29.5 152,-29.5 152,-16.5 130,-16.5"/>
<text text-anchor="start" x="133" y="-21.7" font-family="monospace" font-size="6.00">Line</text>
<polygon fill="none" stroke="black" points="82,-3.5 82,-16.5 130,-16.5 130,-3.5 82,-3.5"/>
<text text-anchor="start" x="89" y="-8.7" font-family="monospace" font-size="6.00">return r1</text>
<polygon fill="none" stroke="black" points="130,-3.5 130,-16.5 152,-16.5 152,-3.5 130,-3.5"/>
<text text-anchor="start" x="139" y="-8.7" font-family="monospace" font-size="6.00">5</text>
</g>
<!-- b3 -->
<g id="node4" class="node">
<title>b3</title>
<polygon fill="CornSilk" stroke="transparent" points="8,-132.5 8,-145.5 100,-145.5 100,-132.5 8,-132.5"/>
<polygon fill="none" stroke="black" points="8,-132.5 8,-145.5 100,-145.5 100,-132.5 8,-132.5"/>
<text text-anchor="start" x="50" y="-137.7" font-family="monospace" font-size="6.00">b3</text>
<polygon fill="#f2f2f2" stroke="transparent" points="8,-119.5 8,-132.5 78,-132.5 78,-119.5 8,-119.5"/>
<polygon fill="none" stroke="black" points="8,-119.5 8,-132.5 78,-132.5 78,-119.5 8,-119.5"/>
<text text-anchor="start" x="22" y="-124.7" font-family="monospace" font-size="6.00">Instruction</text>
<polygon fill="#f2f2f2" stroke="transparent" points="78,-119.5 78,-132.5 100,-132.5 100,-119.5 78,-119.5"/>
<polygon fill="none" stroke="black" points="78,-119.5 78,-132.5 100,-132.5 100,-119.5 78,-119.5"/>
<text text-anchor="start" x="81" y="-124.7" font-family="monospace" font-size="6.00">Line</text>
<polygon fill="none" stroke="black" points="8,-106.5 8,-119.5 78,-119.5 78,-106.5 8,-106.5"/>
<text text-anchor="start" x="11" y="-111.7" font-family="monospace" font-size="6.00">r4 = string &quot;bar&quot;</text>
<polygon fill="none" stroke="black" points="78,-106.5 78,-119.5 100,-119.5 100,-106.5 78,-106.5"/>
<text text-anchor="start" x="87" y="-111.7" font-family="monospace" font-size="6.00">8</text>
<polygon fill="none" stroke="black" points="8,-93.5 8,-106.5 78,-106.5 78,-93.5 8,-93.5"/>
<text text-anchor="start" x="20" y="-98.7" font-family="monospace" font-size="6.00">r1 = move r4</text>
<polygon fill="none" stroke="black" points="78,-93.5 78,-106.5 100,-106.5 100,-93.5 78,-93.5"/>
<text text-anchor="start" x="87" y="-98.7" font-family="monospace" font-size="6.00">5</text>
</g>
<!-- b2&#45;&gt;b3 -->
<g id="edge3" class="edge">
<title>b2&#45;&gt;b3</title>
<path fill="none" stroke="black" d="M98.78,-191.93C92.18,-181.41 84.64,-169.37 77.64,-158.22"/>
<polygon fill="black" stroke="black" points="80.46,-156.12 72.18,-149.5 74.53,-159.84 80.46,-156.12"/>
</g>
<!-- b4 -->
<g id="node5" class="node">
<title>b4</title>
<polygon fill="CornSilk" stroke="transparent" points="134,-138.5 134,-151.5 226,-151.5 226,-138.5 134,-138.5"/>
<polygon fill="none" stroke="black" points="134,-138.5 134,-151.5 226,-151.5 226,-138.5 134,-138.5"/>
<text text-anchor="start" x="176" y="-143.7" font-family="monospace" font-size="6.00">b4</text>
<polygon fill="#f2f2f2" stroke="transparent" points="134,-125.5 134,-138.5 204,-138.5 204,-125.5 134,-125.5"/>
<polygon fill="none" stroke="black" points="134,-125.5 134,-138.5 204,-138.5 204,-125.5 134,-125.5"/>
<text text-anchor="start" x="148" y="-130.7" font-family="monospace" font-size="6.00">Instruction</text>
<polygon fill="#f2f2f2" stroke="transparent" points="204,-125.5 204,-138.5 226,-138.5 226,-125.5 204,-125.5"/>
<polygon fill="none" stroke="black" points="204,-125.5 204,-138.5 226,-138.5 226,-125.5 204,-125.5"/>
<text text-anchor="start" x="207" y="-130.7" font-family="monospace" font-size="6.00">Line</text>
<polygon fill="none" stroke="black" points="134,-112.5 134,-125.5 204,-125.5 204,-112.5 134,-112.5"/>
<text text-anchor="start" x="137" y="-117.7" font-family="monospace" font-size="6.00">r3 = string &quot;foo&quot;</text>
<polygon fill="none" stroke="black" points="204,-112.5 204,-125.5 226,-125.5 226,-112.5 204,-112.5"/>
<text text-anchor="start" x="213" y="-117.7" font-family="monospace" font-size="6.00">6</text>
<polygon fill="none" stroke="black" points="134,-99.5 134,-112.5 204,-112.5 204,-99.5 134,-99.5"/>
<text text-anchor="start" x="146" y="-104.7" font-family="monospace" font-size="6.00">r1 = move r3</text>
<polygon fill="none" stroke="black" points="204,-99.5 204,-112.5 226,-112.5 226,-99.5 204,-99.5"/>
<text text-anchor="start" x="213" y="-104.7" font-family="monospace" font-size="6.00">5</text>
<polygon fill="none" stroke="black" points="134,-86.5 134,-99.5 204,-99.5 204,-86.5 134,-86.5"/>
<text text-anchor="start" x="155.5" y="-91.7" font-family="monospace" font-size="6.00">goto b1</text>
<polygon fill="none" stroke="black" points="204,-86.5 204,-99.5 226,-99.5 226,-86.5 204,-86.5"/>
<text text-anchor="start" x="213" y="-91.7" font-family="monospace" font-size="6.00">5</text>
</g>
<!-- b2&#45;&gt;b4 -->
<g id="edge2" class="edge">
<title>b2&#45;&gt;b4</title>
<path fill="none" stroke="black" d="M135.22,-191.93C140.51,-183.5 146.41,-174.09 152.14,-164.94"/>
<polygon fill="black" stroke="black" points="155.22,-166.62 157.57,-156.29 149.29,-162.9 155.22,-166.62"/>
</g>
<!-- b3&#45;&gt;b1 -->
<g id="edge4" class="edge">
<title>b3&#45;&gt;b1</title>
<path fill="none" stroke="black" d="M73.59,-89.27C80.77,-78.56 88.92,-66.39 96.21,-55.53"/>
<polygon fill="black" stroke="black" points="99.17,-57.39 101.83,-47.14 93.35,-53.5 99.17,-57.39"/>
</g>
<!-- b4&#45;&gt;b1 -->
<g id="edge5" class="edge">
<title>b4&#45;&gt;b1</title>
<path fill="none" stroke="black" d="M156.18,-82.96C150.12,-73.92 143.65,-64.27 137.76,-55.47"/>
<polygon fill="black" stroke="black" points="140.56,-53.37 132.09,-47.01 134.75,-57.26 140.56,-53.37"/>
</g>
</g>
</svg>
