<?xml version="1.0" encoding="UTF-8" standalone="no"?>
<!DOCTYPE svg PUBLIC "-//W3C//DTD SVG 1.1//EN"
 "http://www.w3.org/Graphics/SVG/1.1/DTD/svg11.dtd">
<!-- Generated by graphviz version 2.42.1 (0)
 -->
<!-- Title: Flow Pages: 1 -->
<svg width="412pt" height="240pt"
 viewBox="0.00 0.00 412.16 239.56" xmlns="http://www.w3.org/2000/svg" xmlns:xlink="http://www.w3.org/1999/xlink">
<g id="graph0" class="graph" transform="scale(1 1) rotate(0) translate(4 235.56)">
<title>Flow</title>
<polygon fill="white" stroke="transparent" points="-4,4 -4,-235.56 408.16,-235.56 408.16,4 -4,4"/>
<!-- Compiler process 1 -->
<g id="node1" class="node">
<title>Compiler process 1</title>
<polygon fill="#efa5cc" stroke="black" points="173.16,-231.56 50.16,-231.56 50.16,-195.56 173.16,-195.56 173.16,-231.56"/>
<text text-anchor="middle" x="111.66" y="-209.86" font-family="Times,serif" font-size="14.00">Compiler process 1</text>
</g>
<!-- Shard 1 -->
<g id="node3" class="node">
<title>Shard 1</title>
<polygon fill="#bcddaf" stroke="black" points="403.16,-231.56 344.16,-231.56 344.16,-195.56 403.16,-195.56 403.16,-231.56"/>
<text text-anchor="middle" x="373.66" y="-209.86" font-family="Times,serif" font-size="14.00">Shard 1</text>
</g>
<!-- Compiler process 1&#45;&gt;Shard 1 -->
<g id="edge3" class="edge">
<title>Compiler process 1&#45;&gt;Shard 1</title>
<path fill="none" stroke="black" d="M154.67,-195.48C172.04,-189.1 192.48,-182.73 211.66,-179.56 232.27,-176.15 285.33,-174.76 305.66,-179.56 315.87,-181.97 326.3,-186.16 335.82,-190.8"/>
<polygon fill="black" stroke="black" points="334.51,-194.06 345,-195.53 337.72,-187.84 334.51,-194.06"/>
<text text-anchor="middle" x="258.66" y="-183.36" font-family="Times,serif" font-size="14.00">3: lookup(String)</text>
</g>
<!-- Registry process -->
<g id="node5" class="node">
<title>Registry process</title>
<polygon fill="#fdffaf" stroke="black" points="165.16,-144.56 58.16,-144.56 58.16,-108.56 165.16,-108.56 165.16,-144.56"/>
<text text-anchor="middle" x="111.66" y="-122.86" font-family="Times,serif" font-size="14.00">Registry process</text>
</g>
<!-- Compiler process 1&#45;&gt;Registry process -->
<g id="edge1" class="edge">
<title>Compiler process 1&#45;&gt;Registry process</title>
<path fill="none" stroke="black" d="M50.02,-206.04C32.55,-201.01 15.38,-192.35 4.66,-177.56 -10.93,-156.06 16.63,-143.52 47.67,-136.37"/>
<polygon fill="black" stroke="black" points="48.76,-139.72 57.82,-134.24 47.32,-132.87 48.76,-139.72"/>
<text text-anchor="middle" x="60.16" y="-166.36" font-family="Times,serif" font-size="14.00"> 1: shard(std::string)</text>
</g>
<!-- Compiler process 2 -->
<g id="node2" class="node">
<title>Compiler process 2</title>
<polygon fill="#efa5cc" stroke="black" points="173.16,-57.56 50.16,-57.56 50.16,-21.56 173.16,-21.56 173.16,-57.56"/>
<text text-anchor="middle" x="111.66" y="-35.86" font-family="Times,serif" font-size="14.00">Compiler process 2</text>
</g>
<!-- Shard 2 -->
<g id="node4" class="node">
<title>Shard 2</title>
<polygon fill="#bcddaf" stroke="black" points="404.16,-57.56 345.16,-57.56 345.16,-21.56 404.16,-21.56 404.16,-57.56"/>
<text text-anchor="middle" x="374.66" y="-35.86" font-family="Times,serif" font-size="14.00">Shard 2</text>
</g>
<!-- Compiler process 2&#45;&gt;Shard 2 -->
<g id="edge7" class="edge">
<title>Compiler process 2&#45;&gt;Shard 2</title>
<path fill="none" stroke="black" stroke-dasharray="5,2" d="M173.32,-39.56C223.25,-39.56 292.11,-39.56 334.98,-39.56"/>
<polygon fill="black" stroke="black" points="335.03,-43.06 345.03,-39.56 335.03,-36.06 335.03,-43.06"/>
<text text-anchor="middle" x="259.16" y="-46.36" font-family="Times,serif" font-size="14.00">3: lookup(Integer)</text>
</g>
<!-- Compiler process 2&#45;&gt;Registry process -->
<g id="edge5" class="edge">
<title>Compiler process 2&#45;&gt;Registry process</title>
<path fill="none" stroke="black" stroke-dasharray="5,2" d="M111.66,-57.73C111.66,-69.36 111.66,-84.98 111.66,-98.29"/>
<polygon fill="black" stroke="black" points="108.16,-98.36 111.66,-108.36 115.16,-98.36 108.16,-98.36"/>
<text text-anchor="middle" x="172.16" y="-79.36" font-family="Times,serif" font-size="14.00"> &#160;1: shard(std::integer)</text>
</g>
<!-- Shard 1&#45;&gt;Compiler process 1 -->
<g id="edge4" class="edge">
<title>Shard 1&#45;&gt;Compiler process 1</title>
<path fill="none" stroke="black" d="M343.87,-213.56C305.2,-213.56 236.43,-213.56 183.73,-213.56"/>
<polygon fill="black" stroke="black" points="183.42,-210.06 173.42,-213.56 183.42,-217.06 183.42,-210.06"/>
<text text-anchor="middle" x="258.66" y="-220.36" font-family="Times,serif" font-size="14.00">4: type ID = 2317</text>
</g>
<!-- Shard 2&#45;&gt;Compiler process 2 -->
<g id="edge8" class="edge">
<title>Shard 2&#45;&gt;Compiler process 2</title>
<path fill="none" stroke="black" stroke-dasharray="5,2" d="M344.81,-22.06C331.98,-15.5 316.54,-8.85 301.66,-5.56 264.77,2.61 253.97,0.33 216.66,-5.56 200.04,-8.18 182.48,-13 166.57,-18.21"/>
<polygon fill="black" stroke="black" points="165.25,-14.96 156.9,-21.48 167.49,-21.59 165.25,-14.96"/>
<text text-anchor="middle" x="259.16" y="-9.36" font-family="Times,serif" font-size="14.00">4: type ID = 42</text>
</g>
<!-- Registry process&#45;&gt;Compiler process 1 -->
<g id="edge2" class="edge">
<title>Registry process&#45;&gt;Compiler process 1</title>
<path fill="none" stroke="black" d="M122.53,-144.72C125.44,-150.21 128.18,-156.45 129.66,-162.56 131.53,-170.29 130.1,-178.48 127.38,-185.95"/>
<polygon fill="black" stroke="black" points="124.11,-184.7 123.23,-195.25 130.5,-187.55 124.11,-184.7"/>
<text text-anchor="middle" x="166.66" y="-166.36" font-family="Times,serif" font-size="14.00"> &#160;2: shard = 2</text>
</g>
<!-- Registry process&#45;&gt;Compiler process 2 -->
<g id="edge6" class="edge">
<title>Registry process&#45;&gt;Compiler process 2</title>
<path fill="none" stroke="black" stroke-dasharray="5,2" d="M57.75,-116.8C42.97,-111.66 28.58,-103.5 19.66,-90.56 9.1,-75.25 21.67,-64.19 40.57,-56.43"/>
<polygon fill="black" stroke="black" points="41.78,-59.71 49.96,-52.99 39.37,-53.14 41.78,-59.71"/>
<text text-anchor="middle" x="56.66" y="-79.36" font-family="Times,serif" font-size="14.00"> &#160;2: shard = 4</text>
</g>
</g>
</svg>
