<?xml version="1.0" encoding="UTF-8" standalone="no"?>
<!DOCTYPE svg PUBLIC "-//W3C//DTD SVG 1.1//EN"
 "http://www.w3.org/Graphics/SVG/1.1/DTD/svg11.dtd">
<!-- Generated by graphviz version 2.42.1 (0)
 -->
<!-- Title: Flow Pages: 1 -->
<svg width="342pt" height="415pt"
 viewBox="0.00 0.00 342.00 414.83" xmlns="http://www.w3.org/2000/svg" xmlns:xlink="http://www.w3.org/1999/xlink">
<g id="graph0" class="graph" transform="scale(1 1) rotate(0) translate(4 410.83)">
<title>Flow</title>
<polygon fill="white" stroke="transparent" points="-4,4 -4,-410.83 338,-410.83 338,4 -4,4"/>
<!-- Compiler process -->
<g id="node1" class="node">
<title>Compiler process</title>
<polygon fill="#efa5cc" stroke="black" points="334,-228.83 221,-228.83 221,-192.83 334,-192.83 334,-228.83"/>
<text text-anchor="middle" x="277.5" y="-207.13" font-family="Times,serif" font-size="14.00">Compiler process</text>
</g>
<!-- Shard 1 -->
<g id="node2" class="node">
<title>Shard 1</title>
<polygon fill="#bcddaf" stroke="black" points="59,-376.83 0,-376.83 0,-340.83 59,-340.83 59,-376.83"/>
<text text-anchor="middle" x="29.5" y="-355.13" font-family="Times,serif" font-size="14.00">Shard 1</text>
</g>
<!-- Compiler process&#45;&gt;Shard 1 -->
<g id="edge1" class="edge">
<title>Compiler process&#45;&gt;Shard 1</title>
<path fill="none" stroke="black" d="M274.78,-229.01C270.3,-264.85 254.73,-344.08 203,-377.83 162.81,-404.05 105.86,-390.29 68.56,-376.15"/>
<polygon fill="black" stroke="black" points="69.64,-372.82 59.06,-372.38 67.06,-379.32 69.64,-372.82"/>
<text text-anchor="middle" x="140" y="-395.63" font-family="Times,serif" font-size="14.00">1: module(std::integer)</text>
</g>
<!-- Shard 2 -->
<g id="node3" class="node">
<title>Shard 2</title>
<polygon fill="#bcddaf" stroke="black" points="59,-295.83 0,-295.83 0,-259.83 59,-259.83 59,-295.83"/>
<text text-anchor="middle" x="29.5" y="-274.13" font-family="Times,serif" font-size="14.00">Shard 2</text>
</g>
<!-- Compiler process&#45;&gt;Shard 2 -->
<g id="edge3" class="edge">
<title>Compiler process&#45;&gt;Shard 2</title>
<path fill="none" stroke="black" d="M260.39,-228.9C246.68,-242.89 225.65,-261.27 203,-269.83 159.35,-286.33 105.02,-285.72 69.13,-282.71"/>
<polygon fill="black" stroke="black" points="69.35,-279.22 59.06,-281.77 68.69,-286.19 69.35,-279.22"/>
<text text-anchor="middle" x="140" y="-287.63" font-family="Times,serif" font-size="14.00">3: module(std::integer)</text>
</g>
<!-- Shard 3 -->
<g id="node4" class="node">
<title>Shard 3</title>
<polygon fill="#bcddaf" stroke="black" points="59,-174.83 0,-174.83 0,-138.83 59,-138.83 59,-174.83"/>
<text text-anchor="middle" x="29.5" y="-153.13" font-family="Times,serif" font-size="14.00">Shard 3</text>
</g>
<!-- Compiler process&#45;&gt;Shard 3 -->
<g id="edge5" class="edge">
<title>Compiler process&#45;&gt;Shard 3</title>
<path fill="none" stroke="black" d="M229.44,-192.78C220.73,-189.85 211.65,-187.05 203,-184.83 157.85,-173.28 104.78,-165.51 69.54,-161.14"/>
<polygon fill="black" stroke="black" points="69.56,-157.62 59.21,-159.9 68.72,-164.57 69.56,-157.62"/>
<text text-anchor="middle" x="140" y="-188.63" font-family="Times,serif" font-size="14.00">5: module(std::integer)</text>
</g>
<!-- Shard 4 -->
<g id="node5" class="node">
<title>Shard 4</title>
<polygon fill="#bcddaf" stroke="black" points="59,-66.83 0,-66.83 0,-30.83 59,-30.83 59,-66.83"/>
<text text-anchor="middle" x="29.5" y="-45.13" font-family="Times,serif" font-size="14.00">Shard 4</text>
</g>
<!-- Compiler process&#45;&gt;Shard 4 -->
<g id="edge7" class="edge">
<title>Compiler process&#45;&gt;Shard 4</title>
<path fill="none" stroke="black" d="M272.06,-192.64C263.84,-163.14 243.31,-105.31 203,-76.83 192.24,-69.23 116.62,-59.05 69.14,-53.29"/>
<polygon fill="black" stroke="black" points="69.53,-49.81 59.18,-52.1 68.7,-56.76 69.53,-49.81"/>
<text text-anchor="middle" x="140" y="-80.63" font-family="Times,serif" font-size="14.00">7: module(std::integer)</text>
</g>
<!-- Shard 1&#45;&gt;Compiler process -->
<g id="edge2" class="edge">
<title>Shard 1&#45;&gt;Compiler process</title>
<path fill="none" stroke="black" d="M59.32,-348.2C65.13,-346.26 71.22,-344.37 77,-342.83 132.09,-328.19 155.34,-350.11 203,-318.83 232.63,-299.39 253.47,-263.44 265.22,-238.39"/>
<polygon fill="black" stroke="black" points="268.51,-239.6 269.41,-229.05 262.12,-236.73 268.51,-239.6"/>
<text text-anchor="middle" x="140" y="-346.63" font-family="Times,serif" font-size="14.00">2: No</text>
</g>
<!-- Shard 2&#45;&gt;Compiler process -->
<g id="edge4" class="edge">
<title>Shard 2&#45;&gt;Compiler process</title>
<path fill="none" stroke="black" d="M45.37,-259.45C53.69,-250.49 64.82,-240.46 77,-234.83 89.07,-229.25 157.49,-221.81 210.88,-216.7"/>
<polygon fill="black" stroke="black" points="211.37,-220.17 221,-215.74 210.71,-213.2 211.37,-220.17"/>
<text text-anchor="middle" x="140" y="-238.63" font-family="Times,serif" font-size="14.00">4: No</text>
</g>
<!-- Shard 3&#45;&gt;Compiler process -->
<g id="edge6" class="edge">
<title>Shard 3&#45;&gt;Compiler process</title>
<path fill="none" stroke="black" d="M52.86,-138.75C60.13,-133.91 68.52,-129.33 77,-126.83 130.72,-111.01 152,-103.69 203,-126.83 228.71,-138.5 248.96,-164.09 261.64,-183.98"/>
<polygon fill="black" stroke="black" points="258.73,-185.93 266.92,-192.65 264.71,-182.29 258.73,-185.93"/>
<text text-anchor="middle" x="140" y="-130.63" font-family="Times,serif" font-size="14.00">6: No</text>
</g>
<!-- Shard 4&#45;&gt;Compiler process -->
<g id="edge8" class="edge">
<title>Shard 4&#45;&gt;Compiler process</title>
<path fill="none" stroke="black" d="M52.86,-30.75C60.13,-25.91 68.52,-21.33 77,-18.83 130.72,-3.01 156.86,12.91 203,-18.83 257.08,-56.04 271.39,-138.88 275.16,-182.58"/>
<polygon fill="black" stroke="black" points="271.69,-183.08 275.91,-192.8 278.67,-182.57 271.69,-183.08"/>
<text text-anchor="middle" x="140" y="-22.63" font-family="Times,serif" font-size="14.00">8: module ID = 42</text>
</g>
</g>
</svg>
