<?xml version="1.0" encoding="UTF-8" standalone="no"?>
<!DOCTYPE svg PUBLIC "-//W3C//DTD SVG 1.1//EN"
 "http://www.w3.org/Graphics/SVG/1.1/DTD/svg11.dtd">
<!-- Generated by graphviz version 2.42.1 (0)
 -->
<!-- Title: Flow Pages: 1 -->
<svg width="357pt" height="413pt"
 viewBox="0.00 0.00 357.00 413.00" xmlns="http://www.w3.org/2000/svg" xmlns:xlink="http://www.w3.org/1999/xlink">
<g id="graph0" class="graph" transform="scale(1 1) rotate(0) translate(4 409)">
<title>Flow</title>
<polygon fill="white" stroke="transparent" points="-4,4 -4,-409 353,-409 353,4 -4,4"/>
<!-- Compiler process -->
<g id="node1" class="node">
<title>Compiler process</title>
<polygon fill="#efa5cc" stroke="black" points="349,-226 236,-226 236,-190 349,-190 349,-226"/>
<text text-anchor="middle" x="292.5" y="-204.3" font-family="Times,serif" font-size="14.00">Compiler process</text>
</g>
<!-- Partition 1 -->
<g id="node2" class="node">
<title>Partition 1</title>
<polygon fill="#bcddaf" stroke="black" points="74,-374 0,-374 0,-338 74,-338 74,-374"/>
<text text-anchor="middle" x="37" y="-352.3" font-family="Times,serif" font-size="14.00">Partition 1</text>
</g>
<!-- Compiler process&#45;&gt;Partition 1 -->
<g id="edge1" class="edge">
<title>Compiler process&#45;&gt;Partition 1</title>
<path fill="none" stroke="black" d="M289.78,-226.17C285.3,-262.02 269.73,-341.24 218,-375 178.21,-400.96 122.64,-389.63 83.8,-376"/>
<polygon fill="black" stroke="black" points="84.9,-372.67 74.31,-372.51 82.49,-379.24 84.9,-372.67"/>
<text text-anchor="middle" x="155" y="-393.8" font-family="Times,serif" font-size="14.00">1: module(std::integer)</text>
</g>
<!-- Partition 2 -->
<g id="node3" class="node">
<title>Partition 2</title>
<polygon fill="#bcddaf" stroke="black" points="74,-293 0,-293 0,-257 74,-257 74,-293"/>
<text text-anchor="middle" x="37" y="-271.3" font-family="Times,serif" font-size="14.00">Partition 2</text>
</g>
<!-- Compiler process&#45;&gt;Partition 2 -->
<g id="edge3" class="edge">
<title>Compiler process&#45;&gt;Partition 2</title>
<path fill="none" stroke="black" d="M275.39,-226.08C261.69,-240.07 240.66,-258.46 218,-267 174.79,-283.28 121.56,-283.45 84.23,-280.67"/>
<polygon fill="black" stroke="black" points="84.41,-277.17 74.15,-279.81 83.82,-284.14 84.41,-277.17"/>
<text text-anchor="middle" x="155" y="-285.8" font-family="Times,serif" font-size="14.00">3: module(std::integer)</text>
</g>
<!-- Partition 3 -->
<g id="node4" class="node">
<title>Partition 3</title>
<polygon fill="#bcddaf" stroke="black" points="74,-172 0,-172 0,-136 74,-136 74,-172"/>
<text text-anchor="middle" x="37" y="-150.3" font-family="Times,serif" font-size="14.00">Partition 3</text>
</g>
<!-- Compiler process&#45;&gt;Partition 3 -->
<g id="edge5" class="edge">
<title>Compiler process&#45;&gt;Partition 3</title>
<path fill="none" stroke="black" d="M244.45,-189.9C235.74,-186.97 226.66,-184.18 218,-182 173.34,-170.73 121.25,-163.22 84.63,-158.84"/>
<polygon fill="black" stroke="black" points="84.59,-155.31 74.25,-157.63 83.78,-162.27 84.59,-155.31"/>
<text text-anchor="middle" x="155" y="-185.8" font-family="Times,serif" font-size="14.00">5: module(std::integer)</text>
</g>
<!-- Partition 4 -->
<g id="node5" class="node">
<title>Partition 4</title>
<polygon fill="#bcddaf" stroke="black" points="74,-64 0,-64 0,-28 74,-28 74,-64"/>
<text text-anchor="middle" x="37" y="-42.3" font-family="Times,serif" font-size="14.00">Partition 4</text>
</g>
<!-- Compiler process&#45;&gt;Partition 4 -->
<g id="edge7" class="edge">
<title>Compiler process&#45;&gt;Partition 4</title>
<path fill="none" stroke="black" d="M286.83,-189.62C278.38,-160.44 257.66,-103.95 218,-76 207.21,-68.39 134.19,-57.98 84.54,-51.63"/>
<polygon fill="black" stroke="black" points="84.68,-48.12 74.32,-50.34 83.81,-55.07 84.68,-48.12"/>
<text text-anchor="middle" x="155" y="-79.8" font-family="Times,serif" font-size="14.00">7: module(std::integer)</text>
</g>
<!-- Partition 1&#45;&gt;Compiler process -->
<g id="edge2" class="edge">
<title>Partition 1&#45;&gt;Compiler process</title>
<path fill="none" stroke="black" d="M74.16,-344.7C80.1,-343.01 86.2,-341.38 92,-340 147.37,-326.78 170.35,-348.15 218,-317 247.85,-297.48 268.64,-261.18 280.32,-235.85"/>
<polygon fill="black" stroke="black" points="283.65,-236.98 284.48,-226.41 277.24,-234.15 283.65,-236.98"/>
<text text-anchor="middle" x="155" y="-343.8" font-family="Times,serif" font-size="14.00">2: No</text>
</g>
<!-- Partition 2&#45;&gt;Compiler process -->
<g id="edge4" class="edge">
<title>Partition 2&#45;&gt;Compiler process</title>
<path fill="none" stroke="black" d="M55.81,-256.62C65.62,-247.67 78.51,-237.64 92,-232 104.25,-226.88 172.44,-219.36 225.73,-214.11"/>
<polygon fill="black" stroke="black" points="226.22,-217.58 235.83,-213.12 225.54,-210.61 226.22,-217.58"/>
<text text-anchor="middle" x="155" y="-235.8" font-family="Times,serif" font-size="14.00">4: No</text>
</g>
<!-- Partition 3&#45;&gt;Compiler process -->
<g id="edge6" class="edge">
<title>Partition 3&#45;&gt;Compiler process</title>
<path fill="none" stroke="black" d="M65.51,-135.87C73.7,-131.42 82.92,-127.28 92,-125 146.31,-111.34 166.94,-102.01 218,-125 243.42,-136.44 263.6,-161.5 276.33,-181.1"/>
<polygon fill="black" stroke="black" points="273.4,-183.02 281.65,-189.66 279.35,-179.32 273.4,-183.02"/>
<text text-anchor="middle" x="155" y="-128.8" font-family="Times,serif" font-size="14.00">6: No</text>
</g>
<!-- Partition 4&#45;&gt;Compiler process -->
<g id="edge8" class="edge">
<title>Partition 4&#45;&gt;Compiler process</title>
<path fill="none" stroke="black" d="M66.7,-27.91C74.61,-23.84 83.38,-20.1 92,-18 146.41,-4.73 171.81,13.66 218,-18 271.52,-54.68 286.08,-136.36 290.03,-179.71"/>
<polygon fill="black" stroke="black" points="286.56,-180.15 290.83,-189.85 293.53,-179.61 286.56,-180.15"/>
<text text-anchor="middle" x="155" y="-21.8" font-family="Times,serif" font-size="14.00">8: module ID = 42</text>
</g>
</g>
</svg>
