<?xml version="1.0" encoding="UTF-8" standalone="no"?>
<!DOCTYPE svg PUBLIC "-//W3C//DTD SVG 1.1//EN"
 "http://www.w3.org/Graphics/SVG/1.1/DTD/svg11.dtd">
<!-- Generated by graphviz version 2.42.1 (0)
 -->
<!-- Title: Flow Pages: 1 -->
<svg width="435pt" height="239pt"
 viewBox="0.00 0.00 435.01 239.24" xmlns="http://www.w3.org/2000/svg" xmlns:xlink="http://www.w3.org/1999/xlink">
<g id="graph0" class="graph" transform="scale(1 1) rotate(0) translate(4 235.24)">
<title>Flow</title>
<polygon fill="white" stroke="transparent" points="-4,4 -4,-235.24 431.01,-235.24 431.01,4 -4,4"/>
<!-- Compiler process 1 -->
<g id="node1" class="node">
<title>Compiler process 1</title>
<polygon fill="#efa5cc" stroke="black" points="181.51,-231.24 58.51,-231.24 58.51,-195.24 181.51,-195.24 181.51,-231.24"/>
<text text-anchor="middle" x="120.01" y="-209.54" font-family="Times,serif" font-size="14.00">Compiler process 1</text>
</g>
<!-- Partition 1 -->
<g id="node3" class="node">
<title>Partition 1</title>
<polygon fill="#bcddaf" stroke="black" points="426.01,-231.24 352.01,-231.24 352.01,-195.24 426.01,-195.24 426.01,-231.24"/>
<text text-anchor="middle" x="389.01" y="-209.54" font-family="Times,serif" font-size="14.00">Partition 1</text>
</g>
<!-- Compiler process 1&#45;&gt;Partition 1 -->
<g id="edge3" class="edge">
<title>Compiler process 1&#45;&gt;Partition 1</title>
<path fill="none" stroke="black" d="M162.91,-195.16C180.24,-188.78 200.63,-182.41 219.76,-179.24 260.98,-172.4 272.92,-170.44 313.76,-179.24 325.25,-181.71 337.1,-186.09 347.9,-190.89"/>
<polygon fill="black" stroke="black" points="346.54,-194.12 357.08,-195.19 349.51,-187.78 346.54,-194.12"/>
<text text-anchor="middle" x="266.76" y="-183.04" font-family="Times,serif" font-size="14.00">3: lookup(String)</text>
</g>
<!-- Registry process -->
<g id="node5" class="node">
<title>Registry process</title>
<polygon fill="#fdffaf" stroke="black" points="173.51,-144.24 66.51,-144.24 66.51,-108.24 173.51,-108.24 173.51,-144.24"/>
<text text-anchor="middle" x="120.01" y="-122.54" font-family="Times,serif" font-size="14.00">Registry process</text>
</g>
<!-- Compiler process 1&#45;&gt;Registry process -->
<g id="edge1" class="edge">
<title>Compiler process 1&#45;&gt;Registry process</title>
<path fill="none" stroke="black" d="M58.39,-207.91C38.11,-203.19 17.56,-194.17 5.01,-177.24 -12.64,-153.41 21.04,-140.79 56.43,-134.18"/>
<polygon fill="black" stroke="black" points="57.14,-137.61 66.41,-132.48 55.97,-130.71 57.14,-137.61"/>
<text text-anchor="middle" x="68.51" y="-166.04" font-family="Times,serif" font-size="14.00"> 1: partition(std.string)</text>
</g>
<!-- Compiler process 2 -->
<g id="node2" class="node">
<title>Compiler process 2</title>
<polygon fill="#efa5cc" stroke="black" points="181.51,-57.24 58.51,-57.24 58.51,-21.24 181.51,-21.24 181.51,-57.24"/>
<text text-anchor="middle" x="120.01" y="-35.54" font-family="Times,serif" font-size="14.00">Compiler process 2</text>
</g>
<!-- Partition 2 -->
<g id="node4" class="node">
<title>Partition 2</title>
<polygon fill="#bcddaf" stroke="black" points="427.01,-57.24 353.01,-57.24 353.01,-21.24 427.01,-21.24 427.01,-57.24"/>
<text text-anchor="middle" x="390.01" y="-35.54" font-family="Times,serif" font-size="14.00">Partition 2</text>
</g>
<!-- Compiler process 2&#45;&gt;Partition 2 -->
<g id="edge7" class="edge">
<title>Compiler process 2&#45;&gt;Partition 2</title>
<path fill="none" stroke="black" stroke-dasharray="5,2" d="M181.61,-39.24C230.56,-39.24 298.01,-39.24 342.76,-39.24"/>
<polygon fill="black" stroke="black" points="342.78,-42.74 352.78,-39.24 342.78,-35.74 342.78,-42.74"/>
<text text-anchor="middle" x="267.26" y="-46.04" font-family="Times,serif" font-size="14.00">3: lookup(Integer)</text>
</g>
<!-- Compiler process 2&#45;&gt;Registry process -->
<g id="edge5" class="edge">
<title>Compiler process 2&#45;&gt;Registry process</title>
<path fill="none" stroke="black" stroke-dasharray="5,2" d="M125.06,-57.31C127.33,-66.94 129.25,-79.23 128.01,-90.24 127.72,-92.78 127.32,-95.41 126.85,-98.04"/>
<polygon fill="black" stroke="black" points="123.4,-97.42 124.78,-107.92 130.25,-98.85 123.4,-97.42"/>
<text text-anchor="middle" x="197.01" y="-79.04" font-family="Times,serif" font-size="14.00"> &#160;1: partition(std.integer)</text>
</g>
<!-- Partition 1&#45;&gt;Compiler process 1 -->
<g id="edge4" class="edge">
<title>Partition 1&#45;&gt;Compiler process 1</title>
<path fill="none" stroke="black" d="M351.63,-213.24C310.44,-213.24 243.23,-213.24 191.79,-213.24"/>
<polygon fill="black" stroke="black" points="191.72,-209.74 181.72,-213.24 191.72,-216.74 191.72,-209.74"/>
<text text-anchor="middle" x="266.76" y="-220.04" font-family="Times,serif" font-size="14.00">4: type ID = 2317</text>
</g>
<!-- Partition 2&#45;&gt;Compiler process 2 -->
<g id="edge8" class="edge">
<title>Partition 2&#45;&gt;Compiler process 2</title>
<path fill="none" stroke="black" stroke-dasharray="5,2" d="M355.83,-21.18C341.94,-14.81 325.48,-8.43 309.76,-5.24 272.74,2.28 262.07,0.67 224.76,-5.24 208.18,-7.86 190.66,-12.68 174.78,-17.88"/>
<polygon fill="black" stroke="black" points="173.48,-14.63 165.14,-21.16 175.73,-21.26 173.48,-14.63"/>
<text text-anchor="middle" x="267.26" y="-9.04" font-family="Times,serif" font-size="14.00">4: type ID = 42</text>
</g>
<!-- Registry process&#45;&gt;Compiler process 1 -->
<g id="edge2" class="edge">
<title>Registry process&#45;&gt;Compiler process 1</title>
<path fill="none" stroke="black" d="M137,-144.68C144.03,-154.02 149.76,-165.9 146.01,-177.24 144.96,-180.4 143.51,-183.51 141.82,-186.49"/>
<polygon fill="black" stroke="black" points="138.8,-184.7 136.2,-194.97 144.64,-188.56 138.8,-184.7"/>
<text text-anchor="middle" x="192.51" y="-166.04" font-family="Times,serif" font-size="14.00"> &#160;2: partition = 2</text>
</g>
<!-- Registry process&#45;&gt;Compiler process 2 -->
<g id="edge6" class="edge">
<title>Registry process&#45;&gt;Compiler process 2</title>
<path fill="none" stroke="black" stroke-dasharray="5,2" d="M66.25,-119.22C48.25,-114.35 29.99,-105.66 19.01,-90.24 6.24,-72.29 24.22,-60.46 48.39,-52.84"/>
<polygon fill="black" stroke="black" points="49.62,-56.13 58.28,-50.02 47.7,-49.39 49.62,-56.13"/>
<text text-anchor="middle" x="64.51" y="-79.04" font-family="Times,serif" font-size="14.00"> &#160;2: partition = 4</text>
</g>
</g>
</svg>
