<?xml version="1.0" encoding="UTF-8" standalone="no"?>
<!DOCTYPE svg PUBLIC "-//W3C//DTD SVG 1.1//EN"
 "http://www.w3.org/Graphics/SVG/1.1/DTD/svg11.dtd">
<!-- Generated by graphviz version 2.42.1 (0)
 -->
<!-- Title: Flow Pages: 1 -->
<svg width="230pt" height="218pt"
 viewBox="0.00 0.00 230.40 218.00" xmlns="http://www.w3.org/2000/svg" xmlns:xlink="http://www.w3.org/1999/xlink">
<g id="graph0" class="graph" transform="scale(1 1) rotate(0) translate(4 214)">
<title>Flow</title>
<polygon fill="white" stroke="transparent" points="-4,4 -4,-214 226.4,-214 226.4,4 -4,4"/>
<!-- Compiler process 1 -->
<g id="node1" class="node">
<title>Compiler process 1</title>
<polygon fill="#efa5cc" stroke="black" points="165.9,-210 42.9,-210 42.9,-174 165.9,-174 165.9,-210"/>
<text text-anchor="middle" x="104.4" y="-188.3" font-family="Times,serif" font-size="14.00">Compiler process 1</text>
</g>
<!-- Type process -->
<g id="node3" class="node">
<title>Type process</title>
<polygon fill="#bcddaf" stroke="black" points="148.9,-123 59.9,-123 59.9,-87 148.9,-87 148.9,-123"/>
<text text-anchor="middle" x="104.4" y="-101.3" font-family="Times,serif" font-size="14.00">Type process</text>
</g>
<!-- Compiler process 1&#45;&gt;Type process -->
<g id="edge1" class="edge">
<title>Compiler process 1&#45;&gt;Type process</title>
<path fill="none" stroke="black" d="M42.78,-182.26C27.84,-177.08 13.55,-168.9 4.4,-156 -11.01,-134.29 18.8,-121.49 49.79,-114.28"/>
<polygon fill="black" stroke="black" points="50.8,-117.65 59.84,-112.14 49.33,-110.8 50.8,-117.65"/>
<text text-anchor="middle" x="53.4" y="-144.8" font-family="Times,serif" font-size="14.00"> 1: lookup(String)</text>
</g>
<!-- Compiler process 2 -->
<g id="node2" class="node">
<title>Compiler process 2</title>
<polygon fill="#efa5cc" stroke="black" points="165.9,-36 42.9,-36 42.9,0 165.9,0 165.9,-36"/>
<text text-anchor="middle" x="104.4" y="-14.3" font-family="Times,serif" font-size="14.00">Compiler process 2</text>
</g>
<!-- Compiler process 2&#45;&gt;Type process -->
<g id="edge3" class="edge">
<title>Compiler process 2&#45;&gt;Type process</title>
<path fill="none" stroke="black" stroke-dasharray="5,2" d="M108.57,-36.34C109.73,-41.94 110.82,-48.2 111.4,-54 112.14,-61.47 111.6,-69.54 110.55,-76.97"/>
<polygon fill="black" stroke="black" points="107.09,-76.46 108.82,-86.92 113.99,-77.67 107.09,-76.46"/>
<text text-anchor="middle" x="164.9" y="-57.8" font-family="Times,serif" font-size="14.00"> &#160;1: lookup(Integer)</text>
</g>
<!-- Type process&#45;&gt;Compiler process 1 -->
<g id="edge2" class="edge">
<title>Type process&#45;&gt;Compiler process 1</title>
<path fill="none" stroke="black" d="M111.97,-123C115.37,-132.62 118.25,-144.9 116.4,-156 115.95,-158.7 115.32,-161.47 114.57,-164.21"/>
<polygon fill="black" stroke="black" points="111.21,-163.26 111.54,-173.85 117.88,-165.36 111.21,-163.26"/>
<text text-anchor="middle" x="169.4" y="-144.8" font-family="Times,serif" font-size="14.00"> &#160;2: type ID = 2317</text>
</g>
<!-- Type process&#45;&gt;Compiler process 2 -->
<g id="edge4" class="edge">
<title>Type process&#45;&gt;Compiler process 2</title>
<path fill="none" stroke="black" stroke-dasharray="5,2" d="M59.76,-99.94C39.37,-95.6 17.01,-86.78 4.4,-69 -8.14,-51.32 9.29,-39.55 32.93,-31.9"/>
<polygon fill="black" stroke="black" points="34,-35.23 42.61,-29.07 32.03,-28.51 34,-35.23"/>
<text text-anchor="middle" x="48.9" y="-57.8" font-family="Times,serif" font-size="14.00"> 2: type ID = 42</text>
</g>
</g>
</svg>
